<?xml version="1.0" standalone="no"?><!DOCTYPE svg PUBLIC "-//W3C//DTD SVG 1.1//EN" "http://www.w3.org/Graphics/SVG/1.1/DTD/svg11.dtd"><svg t="1729323383032" class="icon" viewBox="0 0 1024 1024" version="1.1" xmlns="http://www.w3.org/2000/svg" p-id="1589" xmlns:xlink="http://www.w3.org/1999/xlink" width="200" height="200"><path d="M874.688 832a42.688 42.688 0 0 1 0 85.312H149.312a42.688 42.688 0 1 1 0-85.312h725.376zM697.984 118.72l177.664 172.48c16.128 15.68 17.28 40.96 3.008 57.984l-2.56 2.816-379.712 369.088a42.688 42.688 0 0 1-28.544 12.032l-183.36 5.12a42.688 42.688 0 0 1-43.84-41.536v-3.008l7.68-179.52a42.688 42.688 0 0 1 12.864-28.8l377.344-366.656a42.688 42.688 0 0 1 59.456 0z m-29.696 90.112L332.8 534.784l-4.992 116.864 120.96-3.328 335.872-326.4-116.48-113.088z" p-id="1590" fill="#8a8a8a"></path></svg>