<svg xmlns="http://www.w3.org/2000/svg" xmlns:xlink="http://www.w3.org/1999/xlink" fill="none" version="1.1" width="15" height="14.870689392089844" viewBox="0 0 15 14.870689392089844"><g><path d="M15,7.43534C15,11.5417,11.6421,14.8707,7.5,14.8707C3.35785,14.8707,0,11.5417,0,7.43534C0,3.3289,3.35785,0,7.5,0C11.6421,0,15,3.3289,15,7.43534C15,7.43534,15,7.43534,15,7.43534ZM6.63248,11.3723C6.63248,11.3723,12.197,5.85575,12.197,5.85575C12.3859,5.66843,12.3859,5.36469,12.197,5.17737C12.197,5.17737,11.5127,4.49898,11.5127,4.49898C11.3238,4.31163,11.0174,4.31163,10.8284,4.49898C10.8284,4.49898,6.29032,8.99791,6.29032,8.99791C6.29032,8.99791,4.1716,6.89745,4.1716,6.89745C3.98265,6.71013,3.67627,6.71013,3.48729,6.89745C3.48729,6.89745,2.803,7.57583,2.803,7.57583C2.61405,7.76316,2.61405,8.0669,2.803,8.25422C2.803,8.25422,5.94817,11.3723,5.94817,11.3723C6.13715,11.5596,6.4435,11.5596,6.63248,11.3723C6.63248,11.3723,6.63248,11.3723,6.63248,11.3723C6.63248,11.3723,6.63248,11.3723,6.63248,11.3723Z" fill="#17482E" fill-opacity="1"/></g></svg>