<svg xmlns="http://www.w3.org/2000/svg" xmlns:xlink="http://www.w3.org/1999/xlink" fill="none" version="1.1" width="24" height="24" viewBox="0 0 24 24"><defs><clipPath id="master_svg0_12_03220"><rect x="0" y="0" width="24" height="24" rx="0"/></clipPath></defs><g clip-path="url(#master_svg0_12_03220)"><g><rect x="3" y="3" width="18" height="18" rx="9" fill="#556EFE" fill-opacity="1"/></g><g><path d="M16.53033,10.53033Q16.63582,10.424841,16.69291,10.287013Q16.75,10.149184,16.75,10Q16.75,9.9261315,16.735590000000002,9.853682Q16.72118,9.781233,16.69291,9.712987Q16.66464,9.644742,16.6236,9.583322Q16.58256,9.521903,16.53033,9.46967Q16.4781,9.417437,16.41668,9.376398Q16.35526,9.335359,16.287010000000002,9.30709Q16.21877,9.278822,16.14632,9.264410999999999Q16.07387,9.25,16,9.25Q15.850819999999999,9.25,15.71299,9.30709Q15.57516,9.364181,15.46967,9.46967L11.5,13.43934L9.530484,11.46982L9.53033,11.46967Q9.424841,11.36418,9.287013,11.30709Q9.149184,11.25,9,11.25Q8.9261315,11.25,8.853682,11.26441Q8.781233,11.27882,8.712987,11.30709Q8.644742,11.33536,8.583322,11.3764Q8.521903,11.41744,8.46967,11.46967Q8.417437,11.5219,8.376398,11.58332Q8.335359,11.64474,8.30709,11.71299Q8.278822,11.78123,8.264410999999999,11.85368Q8.25,11.92613,8.25,12Q8.25,12.14918,8.30709,12.28701Q8.364181,12.42484,8.46967,12.53033L8.469965,12.530619999999999L10.96967,15.03033Q11.07516,15.135819999999999,11.21299,15.192910000000001Q11.35082,15.25,11.5,15.25Q11.64918,15.25,11.78701,15.192910000000001Q11.92484,15.135819999999999,12.03033,15.03033L16.53033,10.53033L16.53033,10.53033Z" fill-rule="evenodd" fill="#FFFFFF" fill-opacity="1"/></g></g></svg>