<svg xmlns="http://www.w3.org/2000/svg" xmlns:xlink="http://www.w3.org/1999/xlink" fill="none" version="1.1" width="15" height="15" viewBox="0 0 15 15"><defs><clipPath id="master_svg0_32_2851"><rect x="0" y="0" width="15" height="15" rx="0"/></clipPath></defs><g clip-path="url(#master_svg0_32_2851)"><rect x="0" y="0" width="15" height="15" rx="0" fill="#000000" fill-opacity="0"/><g><path d="M12.6563,6.5625C12.6563,6.5625,11.9531,6.5625,11.9531,6.5625C11.9531,6.5625,11.9531,4.45312,11.9531,4.45312C11.9531,1.99805,9.95508,0,7.5,0C5.04492,0,3.04688,1.99805,3.04688,4.45312C3.04688,4.45312,3.04688,6.5625,3.04688,6.5625C3.04688,6.5625,2.34375,6.5625,2.34375,6.5625C1.567383,6.5625,0.9375,7.19238,0.9375,7.96875C0.9375,7.96875,0.9375,13.5938,0.9375,13.5938C0.9375,14.3701,1.567383,15,2.34375,15C2.34375,15,12.6563,15,12.6563,15C13.4326,15,14.0625,14.3701,14.0625,13.5938C14.0625,13.5938,14.0625,7.96875,14.0625,7.96875C14.0625,7.19238,13.4326,6.5625,12.6563,6.5625C12.6563,6.5625,12.6563,6.5625,12.6563,6.5625ZM9.60938,6.5625C9.60938,6.5625,5.39062,6.5625,5.39062,6.5625C5.39062,6.5625,5.39062,4.45312,5.39062,4.45312C5.39062,3.29004,6.33691,2.34375,7.5,2.34375C8.66309,2.34375,9.60938,3.29004,9.60938,4.45312C9.60938,4.45312,9.60938,6.5625,9.60938,6.5625C9.60938,6.5625,9.60938,6.5625,9.60938,6.5625Z" fill="#17482E" fill-opacity="1"/></g></g></svg>