<svg xmlns="http://www.w3.org/2000/svg" xmlns:xlink="http://www.w3.org/1999/xlink" fill="none" version="1.1" width="18" height="19" viewBox="0 0 18 19"><g><path d="M14.25,1.69873e-7L4.5,1.69873e-7C2.5575,1.69873e-7,0.95625,1.501,0.76875,3.42L0.75,3.42C0.3375,3.42,0,3.762,0,4.18C0,4.598,0.3375,4.94,0.75,4.94L0.75,8.74C0.3375,8.74,0,9.082,0,9.5C0,9.918,0.3375,10.26,0.75,10.26L0.75,14.06C0.3375,14.06,0,14.402,0,14.82C0,15.238,0.3375,15.58,0.75,15.58L0.76875,15.58C0.95625,17.499,2.5575,19,4.5,19L12.75,19C15.645,19,18,16.6136,18,13.68L18,3.8C18,1.7062,16.3162,0,14.25,1.69873e-7ZM9.375,3.8C10.8262,3.8,12,4.9894,12,6.46C12,7.9306,10.8263,9.12,9.375,9.12C7.92375,9.12,6.75,7.9306,6.75,6.46C6.75,4.9894,7.92375,3.8,9.375,3.8ZM14.25,13.7978C14.25,14.5692,13.605,15.2,12.8137,15.2L5.93625,15.2C5.145,15.2,4.5,14.573,4.5,13.7978L4.5,13.6686C4.53,11.7838,6.26625,10.26,8.36625,10.26L10.38,10.26C12.4838,10.26,14.2162,11.7838,14.2463,13.6572L14.2463,13.7978L14.25,13.7978Z" fill="#556EFE" fill-opacity="1" style="mix-blend-mode:passthrough"/></g></svg>