<svg xmlns="http://www.w3.org/2000/svg" xmlns:xlink="http://www.w3.org/1999/xlink" fill="none" version="1.1" width="72.2598876953125" height="75.0643310546875" viewBox="0 0 72.2598876953125 75.0643310546875"><defs><filter id="master_svg0_390_7740/362_05980" filterUnits="objectBoundingBox" color-interpolation-filters="sRGB" x="-42" y="-42" width="95.85000419616699" height="93.02172088623047"><feFlood flood-opacity="0" result="BackgroundImageFix"/><feBlend mode="normal" in="SourceGraphic" in2="BackgroundImageFix" result="shape"/><feGaussianBlur stdDeviation="10.5" result="effect1_foregroundBlur"/></filter><filter id="master_svg1_390_7740/362_05978" filterUnits="objectBoundingBox" color-interpolation-filters="sRGB" x="0" y="0" width="17.2331485748291" height="22.825916290283203"><feFlood flood-opacity="0" result="BackgroundImageFix"/><feBlend mode="normal" in="SourceGraphic" in2="BackgroundImageFix" result="shape"/><feGaussianBlur in="BackgroundImage" stdDeviation="12"/><feComposite in2="SourceAlpha" operator="in" result="effect1_foregroundBlur"/><feBlend mode="normal" in="SourceGraphic" in2="effect1_foregroundBlur" result="shape"/></filter><linearGradient x1="0.15918369591236115" y1="0.11650128662586212" x2="0.795918345451355" y2="0.907483696937561" id="master_svg2_362_04985"><stop offset="0%" stop-color="#FFFFFF" stop-opacity="0.25"/><stop offset="100%" stop-color="#FFFFFF" stop-opacity="0"/></linearGradient><linearGradient x1="0.9291008114814758" y1="0.18057993054389954" x2="-0.1481175422668457" y2="1.3421075344085693" id="master_svg3_362_05791"><stop offset="0%" stop-color="#FFFFFF" stop-opacity="1"/><stop offset="100%" stop-color="#FFFFFF" stop-opacity="0.20000000298023224"/></linearGradient><linearGradient x1="0.15918369591236115" y1="0.11650128662586212" x2="0.795918345451355" y2="0.907483696937561" id="master_svg4_362_04985"><stop offset="0%" stop-color="#FFFFFF" stop-opacity="0.25"/><stop offset="100%" stop-color="#FFFFFF" stop-opacity="0"/></linearGradient><filter id="master_svg5_390_7740/362_05976" filterUnits="objectBoundingBox" color-interpolation-filters="sRGB" x="-15" y="-15" width="45.00092267990112" height="45.86916971206665"><feFlood flood-opacity="0" result="BackgroundImageFix"/><feColorMatrix in="SourceAlpha" type="matrix" values="0 0 0 0 0 0 0 0 0 0 0 0 0 0 0 0 0 0 127 0"/><feOffset dy="5" dx="5"/><feGaussianBlur stdDeviation="5"/><feColorMatrix type="matrix" values="0 0 0 0 0.5773564577102661 0 0 0 0 0.359375 0 0 0 0 0.9375 0 0 0 0.25 0"/><feBlend mode="normal" in2="BackgroundImageFix" result="effect1_dropShadow"/><feBlend mode="normal" in="SourceGraphic" in2="effect1_dropShadow" result="shape"/><feGaussianBlur in="BackgroundImage" stdDeviation="7.5"/><feComposite in2="SourceAlpha" operator="in" result="effect2_foregroundBlur"/><feBlend mode="normal" in="SourceGraphic" in2="effect2_foregroundBlur" result="shape"/></filter><linearGradient x1="0.9291008114814758" y1="0.18057993054389954" x2="-0.1481175422668457" y2="1.3421075344085693" id="master_svg6_362_05791"><stop offset="0%" stop-color="#FFFFFF" stop-opacity="1"/><stop offset="100%" stop-color="#FFFFFF" stop-opacity="0.20000000298023224"/></linearGradient><linearGradient x1="0.15918369591236115" y1="0.11650128662586212" x2="0.795918345451355" y2="0.907483696937561" id="master_svg7_362_04985"><stop offset="0%" stop-color="#FFFFFF" stop-opacity="0.25"/><stop offset="100%" stop-color="#FFFFFF" stop-opacity="0"/></linearGradient></defs><g transform="matrix(1,-0.0029763507191091776,0.00318319583311677,1,-0.0861648602060825,0.0843133452425775)"><g><g><g><path d="M28.3277645111125,32.20810455078125L28.3277645111125,32.19303455078125C28.3277645111125,29.36260455078125,30.3451487890625,27.06861495968125,32.8342687890625,27.06861495968125L40.8235587890625,27.06861495968125C43.4331587890625,27.06861495968125,45.5609587890625,29.47673455078125,45.5609587890625,32.444124550781254L45.5609587890625,44.74726455078125L45.5608587890625,44.75556455078125L45.5608587890625,44.770564550781245C45.5608587890625,47.601064550781246,43.5435587890625,49.89496455078125,41.0543587890625,49.89496455078125L33.0651187890625,49.89496455078125C30.4555587890625,49.89496455078125,28.3277587890625,47.48686455078125,28.3277587890625,44.51946455078125L28.3277587890625,32.21634455078125L28.3277645111125,32.20810455078125Z" fill-rule="evenodd" fill="#EFEFEF" fill-opacity="1"/></g><g transform="matrix(0,-0.9999999403953552,0.9999999403953552,0,-11.89458969352927,75.06597712125222)" style="opacity:0.5;" filter="url(#master_svg0_390_7740/362_05980)"><rect x="31.585693359375" y="43.48028564453125" width="11.850004196166992" height="9.021720886230469" rx="4.510860443115234" fill="#C9C9C9" fill-opacity="0.5"/></g></g><g><g filter="url(#master_svg1_390_7740/362_05978)"><path d="M36.62199794921875,32.25352478027344C36.62199794921875,32.25352478027344,44.07469794921875,32.25352478027344,44.07469794921875,32.25352478027344C44.07469794921875,32.25352478027344,49.32849794921875,38.61616478027344,49.32849794921875,38.61616478027344C49.32849794921875,38.61616478027344,49.32849794921875,49.95502478027343,49.32849794921875,49.95502478027343C49.32849794921875,52.78542478027344,47.31119794921875,55.07942478027344,44.82199794921875,55.07942478027344C44.82199794921875,55.07942478027344,36.83275794921875,55.07942478027344,36.83275794921875,55.07942478027344C34.22319794921875,55.07942478027344,32.09539794921875,52.67132478027344,32.09539794921875,49.70392478027344C32.09539794921875,49.70392478027344,32.09539794921875,37.40077478027344,32.09539794921875,37.40077478027344C32.09539794921875,34.57035478027344,34.12282794921875,32.25352478027344,36.62199794921875,32.25352478027344C36.62199794921875,32.25352478027344,36.62199794921875,32.25352478027344,36.62199794921875,32.25352478027344Z" fill="#EFEFEF" fill-opacity="1"/><path d="M44.641497949218746,31.52835478027344L50.30069794921875,38.38192478027344Q50.32859794921875,38.497384780273435,50.32859794921875,38.61616478027344L50.32859794921875,49.95502478027343Q50.32859794921875,49.996424780273436,50.32809794921875,50.037524780273436Q50.30239794921875,52.31912478027344,48.85189794921875,53.96852478027344Q47.23719794921875,55.80462478027344,44.82199794921875,55.80462478027344L36.83275794921875,55.80462478027344Q34.32714794921875,55.80462478027344,32.64302794921875,53.89522478027344Q31.12364294921875,52.172524780273434,31.09587794921875,49.79272478027344Q31.09539794921875,49.74842478027344,31.09539794921875,49.70392478027344L31.09539794921875,37.40077478027344Q31.09539794921875,37.357964780273434,31.09585894921875,37.31536478027344Q31.12253494921875,35.03376478027344,32.57795694921875,33.376254780273435Q34.20055794921875,31.52835478027344,36.62199794921875,31.52835478027344L44.641497949218746,31.52835478027344ZM44.07469794921875,32.25352478027344L36.62199794921875,32.25352478027344C34.12282794921875,32.25352478027344,32.09539794921875,34.57035478027344,32.09539794921875,37.40077478027344L32.09539794921875,49.70392478027344C32.09539794921875,52.67132478027344,34.22319794921875,55.07942478027344,36.83275794921875,55.07942478027344L44.82199794921875,55.07942478027344C47.31119794921875,55.07942478027344,49.32849794921875,52.78542478027344,49.32849794921875,49.95502478027343L49.32849794921875,38.61616478027344L44.07469794921875,32.25352478027344Z" fill-rule="evenodd" fill="url(#master_svg2_362_04985)" fill-opacity="1"/></g><g><path d="M40.635719550781246,41.20774841308594C40.635719550781246,41.20774841308594,37.24329755078125,41.20774841308594,37.24329755078125,41.20774841308594C36.83179155078125,41.20774841308594,36.49053955078125,41.59578441308594,36.49053955078125,42.06371141308594C36.49053955078125,42.531638413085936,36.83179155078125,42.90825841308594,37.24329755078125,42.90825841308594C37.24329755078125,42.90825841308594,40.635719550781246,42.90825841308594,40.635719550781246,42.90825841308594C41.04723955078125,42.90825841308594,41.38847955078125,42.531638413085936,41.38847955078125,42.06371141308594C41.38847955078125,41.59578441308594,41.04723955078125,41.20774841308594,40.635719550781246,41.20774841308594C40.635719550781246,41.20774841308594,40.635719550781246,41.20774841308594,40.635719550781246,41.20774841308594ZM37.24331955078125,48.61435841308594C37.24331955078125,48.61435841308594,42.70332955078125,48.61435841308594,42.70332955078125,48.61435841308594C43.11483955078125,48.61435841308594,43.45608955078125,48.22632841308594,43.45608955078125,47.758398413085935C43.45608955078125,47.29046841308594,43.11483955078125,46.91383841308594,42.70332955078125,46.91383841308594C42.70332955078125,46.91383841308594,37.24331955078125,46.91383841308594,37.24331955078125,46.91383841308594C36.83181355078125,46.91383841308594,36.49056222088125,47.29046841308594,36.49056222088125,47.758398413085935C36.49056222088125,48.22632841308594,36.83181355078125,48.61435841308594,37.24331955078125,48.61435841308594C37.24331955078125,48.61435841308594,37.24331955078125,48.61435841308594,37.24331955078125,48.61435841308594Z" fill-rule="evenodd" fill="url(#master_svg3_362_05791)" fill-opacity="1"/><path d="M40.635719550781246,41.20774841308594L37.24329755078125,41.20774841308594C36.83179155078125,41.20774841308594,36.49053955078125,41.59578441308594,36.49053955078125,42.06371141308594C36.49053955078125,42.531638413085936,36.83179155078125,42.90825841308594,37.24329755078125,42.90825841308594L40.635719550781246,42.90825841308594C41.04723955078125,42.90825841308594,41.38847955078125,42.531638413085936,41.38847955078125,42.06371141308594C41.38847955078125,41.59578441308594,41.04723955078125,41.20774841308594,40.635719550781246,41.20774841308594ZM40.635719550781246,41.607748413085936L37.24329755078125,41.607748413085936Q37.11557155078125,41.607748413085936,37.01297355078125,41.72441141308594Q36.89053955078125,41.86363241308594,36.89053955078125,42.06371141308594Q36.89053955078125,42.26060841308594,37.01053255078125,42.39455841308594Q37.11239955078125,42.50825841308594,37.24329755078125,42.50825841308594L40.635719550781246,42.50825841308594Q40.766629550781246,42.50825841308594,40.86848955078125,42.39455841308594Q40.98847955078125,42.260618413085936,40.98847955078125,42.06371141308594Q40.98847955078125,41.863630413085936,40.86604955078125,41.72441141308594Q40.76344955078125,41.607748413085936,40.635719550781246,41.607748413085936ZM37.24331955078125,48.61435841308594L42.70332955078125,48.61435841308594C43.11483955078125,48.61435841308594,43.45608955078125,48.22632841308594,43.45608955078125,47.758398413085935C43.45608955078125,47.29046841308594,43.11483955078125,46.91383841308594,42.70332955078125,46.91383841308594L37.24331955078125,46.91383841308594C36.83181355078125,46.91383841308594,36.49056222088125,47.29046841308594,36.49056222088125,47.758398413085935C36.49056222088125,48.22632841308594,36.83181355078125,48.61435841308594,37.24331955078125,48.61435841308594ZM37.24331955078125,48.21435841308594L42.70332955078125,48.21435841308594Q42.83105955078125,48.21435841308594,42.93365955078125,48.09768841308594Q43.05608955078125,47.958478413085935,43.05608955078125,47.758398413085935Q43.05608955078125,47.56148841308594,42.93608955078125,47.42754841308594Q42.83422955078125,47.31383841308594,42.70331955078125,47.31383841308594L37.24331955078125,47.31383841308594Q37.11242455078125,47.31383841308594,37.01055655078125,47.42754841308594Q36.89056255078125,47.56148841308594,36.89056255078125,47.758398413085935Q36.89056255078125,47.958478413085935,37.01299555078125,48.09768841308594Q37.11559155078125,48.214348413085936,37.24331955078125,48.21435841308594Z" fill-rule="evenodd" fill="url(#master_svg4_362_04985)" fill-opacity="1"/></g><g filter="url(#master_svg5_390_7740/362_05976)"><path d="M45.00394322265625,39.527386245117185C45.70349322265625,39.53536624511719,46.67604322265625,39.538806245117186,47.50104322265625,39.53536624511719C47.92360322265625,39.534236245117185,48.13836322265625,38.960166245117186,47.84531322265625,38.614376245117185C46.78543322265625,37.36122624511719,44.88952322265625,35.118606245117185,43.80456322265625,33.83580624511719C43.50446822265625,33.480866245117184,42.97955322265625,33.725101745117186,42.97955322265625,34.216994245117185C42.97955322265625,34.216994245117185,42.97955322265625,37.22542624511719,42.97955322265625,37.22542624511719C42.97955322265625,38.48766624511719,43.89389022265625,39.527386245117185,45.00394322265625,39.527386245117185Z" fill="url(#master_svg6_362_05791)" fill-opacity="1"/><path d="M45.00394322265625,39.527386245117185C45.70349322265625,39.53536624511719,46.67604322265625,39.538806245117186,47.50104322265625,39.53536624511719C47.92360322265625,39.534236245117185,48.13836322265625,38.960166245117186,47.84531322265625,38.614376245117185C46.78543322265625,37.36122624511719,44.88952322265625,35.118606245117185,43.80456322265625,33.83580624511719C43.50446822265625,33.480866245117184,42.97955322265625,33.725101745117186,42.97955322265625,34.216994245117185L42.97955322265625,37.22542624511719C42.97955322265625,38.48766624511719,43.89389022265625,39.527386245117185,45.00394322265625,39.527386245117185ZM45.00624322265625,39.12738624511719L46.59860322265625,39.13655624511719L47.50052322265625,39.13536624511719Q47.54023322265625,39.13525624511719,47.56686322265625,39.06402624511719Q47.60825322265625,38.953336245117185,47.54016322265625,38.87298624511719L45.49502322265625,36.45442624511719L43.49912522265625,34.09408424511719Q43.47109222265625,34.06092824511719,43.44767322265625,34.07177824511719Q43.37955322265625,34.103338245117186,43.37955322265625,34.216994245117185L43.37955322265625,37.22542624511719Q43.37955322265625,38.02124624511719,43.87585022265625,38.58559624511719Q44.35231322265625,39.12738624511719,45.00394322265625,39.12738624511719L45.00624322265625,39.12738624511719Z" fill-rule="evenodd" fill="url(#master_svg7_362_04985)" fill-opacity="1"/></g></g></g></g></svg>