<svg xmlns="http://www.w3.org/2000/svg" fill="none" width="72.2599" height="75.0643"><defs><linearGradient x1=".1592" y1=".1165" x2=".7959" y2=".9075" id="c"><stop offset="0%" stop-color="#FFF" stop-opacity=".25"/><stop offset="100%" stop-color="#FFF" stop-opacity="0"/></linearGradient><linearGradient x1=".9291" y1=".1806" x2="-.1481" y2="1.3421" id="d"><stop offset="0%" stop-color="#FFF"/><stop offset="100%" stop-color="#FFF" stop-opacity=".2"/></linearGradient><linearGradient x1=".1592" y1=".1165" x2=".7959" y2=".9075" id="e"><stop offset="0%" stop-color="#FFF" stop-opacity=".25"/><stop offset="100%" stop-color="#FFF" stop-opacity="0"/></linearGradient><linearGradient x1=".9291" y1=".1806" x2="-.1481" y2="1.3421" id="g"><stop offset="0%" stop-color="#FFF"/><stop offset="100%" stop-color="#FFF" stop-opacity=".2"/></linearGradient><linearGradient x1=".1592" y1=".1165" x2=".7959" y2=".9075" id="h"><stop offset="0%" stop-color="#FFF" stop-opacity=".25"/><stop offset="100%" stop-color="#FFF" stop-opacity="0"/></linearGradient><filter id="a" filterUnits="objectBoundingBox" color-interpolation-filters="sRGB" x="-42" y="-42" width="95.85" height="93.0217"><feFlood flood-opacity="0" result="BackgroundImageFix"/><feBlend in="SourceGraphic" in2="BackgroundImageFix" result="shape"/><feGaussianBlur stdDeviation="10.5" result="effect1_foregroundBlur"/></filter><filter id="b" filterUnits="objectBoundingBox" color-interpolation-filters="sRGB" x="0" y="0" width="17.2331" height="22.8259"><feFlood flood-opacity="0" result="BackgroundImageFix"/><feBlend in="SourceGraphic" in2="BackgroundImageFix" result="shape"/><feGaussianBlur in="BackgroundImage" stdDeviation="12"/><feComposite in2="SourceAlpha" operator="in" result="effect1_foregroundBlur"/><feBlend in="SourceGraphic" in2="effect1_foregroundBlur" result="shape"/></filter><filter id="f" filterUnits="objectBoundingBox" color-interpolation-filters="sRGB" x="-15" y="-15" width="45.0009" height="45.8692"><feFlood flood-opacity="0" result="BackgroundImageFix"/><feColorMatrix in="SourceAlpha" values="0 0 0 0 0 0 0 0 0 0 0 0 0 0 0 0 0 0 127 0"/><feOffset dy="5" dx="5"/><feGaussianBlur stdDeviation="5"/><feColorMatrix values="0 0 0 0 0.5773564577102661 0 0 0 0 0.359375 0 0 0 0 0.9375 0 0 0 0.25 0"/><feBlend in2="BackgroundImageFix" result="effect1_dropShadow"/><feBlend in="SourceGraphic" in2="effect1_dropShadow" result="shape"/><feGaussianBlur in="BackgroundImage" stdDeviation="7.5"/><feComposite in2="SourceAlpha" operator="in" result="effect2_foregroundBlur"/><feBlend in="SourceGraphic" in2="effect2_foregroundBlur" result="shape"/></filter></defs><g><path d="M28.3278 32.2081v-.015c0-2.8305 2.0173-5.1245 4.5065-5.1245h7.9893c2.6096 0 4.7374 2.4081 4.7374 5.3755v12.3032l-.0001.0083v.015c0 2.8305-2.0173 5.1244-4.5065 5.1244H33.065c-2.6095 0-4.7373-2.4081-4.7373-5.3755V32.208Z" fill-rule="evenodd" fill="#EFEFEF" transform="matrix(1 -.00298 .00318 1 -.0862 .0843)"/><g transform="matrix(1 -.00298 .00318 1 -.0862 .0843) rotate(-90 31.5857 43.4803)" style="opacity:.5" filter="url(#a)"><rect x="31.5857" y="43.4803" width="11.85" height="9.0217" rx="4.5109" fill="#C9C9C9" fill-opacity=".5"/></g><g filter="url(#b)" transform="matrix(1 -.00298 .00318 1 -.0862 .0843)"><path d="M36.622 32.2535h7.4527l5.2538 6.3627V49.955c0 2.8304-2.0173 5.1244-4.5065 5.1244h-7.9892c-2.6096 0-4.7374-2.408-4.7374-5.3755V37.4008c0-2.8304 2.0274-5.1473 4.5266-5.1473Z" fill="#EFEFEF"/><path d="m44.6415 31.5284 5.6592 6.8535q.0279.1155.0279.2343V49.955q0 .0414-.0005.0825-.0257 2.2816-1.4762 3.931-1.6147 1.8361-4.0299 1.8361h-7.9892q-2.5057 0-4.1898-1.9094-1.5194-1.7227-1.5471-4.1025-.0005-.0443-.0005-.0888V37.4008q0-.0428.0005-.0854.0266-2.2816 1.482-3.9391 1.6227-1.848 4.0441-1.848h8.0195Zm-.5668.7251H36.622c-2.4992 0-4.5266 2.3169-4.5266 5.1473v12.3031c0 2.9674 2.1278 5.3755 4.7374 5.3755h7.9892c2.4892 0 4.5065-2.294 4.5065-5.1244V38.6162l-5.2538-6.3627Z" fill-rule="evenodd" fill="url(#c)"/></g><path d="M40.6357 41.2077h-3.3924c-.4115 0-.7528.388-.7528.856 0 .468.3413.8446.7528.8446h3.3924c.4115 0 .7528-.3767.7528-.8446 0-.468-.3413-.856-.7528-.856Zm-3.3924 7.4067h5.46c.4115 0 .7528-.388.7528-.856 0-.468-.3413-.8446-.7528-.8446h-5.46c-.4115 0-.7527.3767-.7527.8446 0 .468.3412.856.7527.856Z" fill-rule="evenodd" fill="url(#d)" transform="matrix(1 -.00298 .00318 1 -.0862 .0843)"/><path d="M40.6357 41.2077h-3.3924c-.4115 0-.7528.388-.7528.856 0 .468.3413.8446.7528.8446h3.3924c.4115 0 .7528-.3767.7528-.8446 0-.468-.3413-.856-.7528-.856Zm0 .4h-3.3924q-.1277 0-.2303.1167-.1225.1392-.1225.3393 0 .197.12.3309.1019.1137.2328.1137h3.3924q.131 0 .2328-.1137.12-.134.12-.3309 0-.2-.1225-.3393-.1026-.1167-.2303-.1167Zm-3.3924 7.0067h5.46c.4115 0 .7528-.388.7528-.856 0-.468-.3413-.8446-.7528-.8446h-5.46c-.4115 0-.7527.3767-.7527.8446 0 .468.3412.856.7527.856Zm0-.4h5.46q.1278 0 .2304-.1167.1224-.1392.1224-.3393 0-.197-.12-.3309-.1019-.1137-.2328-.1137h-5.46q-.1309 0-.2327.1137-.12.134-.12.3309 0 .2.1224.3393.1026.1166.2303.1167Z" fill-rule="evenodd" fill="url(#e)" transform="matrix(1 -.00298 .00318 1 -.0862 .0843)"/><g filter="url(#f)" transform="matrix(1 -.00298 .00318 1 -.0862 .0843)"><path d="M45.004 39.5274c.6995.008 1.672.0114 2.497.008.4226-.0012.6374-.5752.3443-.921-1.0599-1.2532-2.9558-3.4958-4.0407-4.7786-.3001-.355-.825-.1107-.825.3812v3.0084c0 1.2623.9143 2.302 2.0243 2.302Z" fill="url(#g)"/><path d="M45.004 39.5274c.6995.008 1.672.0114 2.497.008.4226-.0012.6374-.5752.3443-.921-1.0599-1.2532-2.9558-3.4958-4.0407-4.7786-.3001-.355-.825-.1107-.825.3812v3.0084c0 1.2623.9143 2.302 2.0243 2.302Zm.0022-.4 1.5924.0092.902-.0012q.0396-.0001.0663-.0714.0414-.1107-.0267-.191l-2.0452-2.4186-1.9959-2.3603q-.028-.0332-.0514-.0223-.0681.0315-.0681.1452v3.0084q0 .7958.4963 1.3602.4764.5418 1.128.5418h.0023Z" fill-rule="evenodd" fill="url(#h)"/></g></g></svg>