<svg xmlns="http://www.w3.org/2000/svg" xmlns:xlink="http://www.w3.org/1999/xlink" fill="none" version="1.1" width="16.000000023403913" height="16.000000023403913" viewBox="0 0 16.000000023403913 16.000000023403913"><defs><clipPath id="master_svg0_420_5613"><rect x="0" y="2.340391347388504e-8" width="16" height="16" rx="8"/></clipPath></defs><g transform="matrix(1,-1.4627454802962347e-9,1.4627454802962347e-9,1,-3.4233968655169494e-17,0)" clip-path="url(#master_svg0_420_5613)"><rect x="0" y="2.340391347388504e-8" width="16" height="16" rx="8" fill="#0FD54A" fill-opacity="1"/><g><path d="M13.8047,4.471383011685163C14.0651,4.211034011685164,14.0651,3.7889240116851637,13.8047,3.5285740116851634C13.5444,3.2682258116851637,13.1223,3.2682258116851637,12.8619,3.5285740116851634C12.8619,3.5285740116851634,13.8047,4.471383011685163,13.8047,4.471383011685163C13.8047,4.471383011685163,13.8047,4.471383011685163,13.8047,4.471383011685163ZM6,11.333313011685163C6,11.333313011685163,5.5285899999999994,11.804713011685163,5.5285899999999994,11.804713011685163C5.78895,12.065043011685164,6.21105,12.065043011685164,6.47141,11.804713011685163C6.47141,11.804713011685163,6,11.333313011685163,6,11.333313011685163C6,11.333313011685163,6,11.333313011685163,6,11.333313011685163ZM3.13807,7.528573011685164C2.877721,7.268223011685164,2.455611,7.268223011685164,2.195261,7.528573011685164C1.9349128,7.7889230116851635,1.9349128,8.211033011685164,2.195261,8.471383011685163C2.195261,8.471383011685163,3.13807,7.528573011685164,3.13807,7.528573011685164C3.13807,7.528573011685164,3.13807,7.528573011685164,3.13807,7.528573011685164ZM12.8619,3.5285740116851634C12.8619,3.5285740116851634,5.5285899999999994,10.861913011685164,5.5285899999999994,10.861913011685164C5.5285899999999994,10.861913011685164,6.47141,11.804713011685163,6.47141,11.804713011685163C6.47141,11.804713011685163,13.8047,4.471383011685163,13.8047,4.471383011685163C13.8047,4.471383011685163,12.8619,3.5285740116851634,12.8619,3.5285740116851634C12.8619,3.5285740116851634,12.8619,3.5285740116851634,12.8619,3.5285740116851634ZM6.47141,10.861913011685164C6.47141,10.861913011685164,3.13807,7.528573011685164,3.13807,7.528573011685164C3.13807,7.528573011685164,2.195261,8.471383011685163,2.195261,8.471383011685163C2.195261,8.471383011685163,5.5285899999999994,11.804713011685163,5.5285899999999994,11.804713011685163C5.5285899999999994,11.804713011685163,6.47141,10.861913011685164,6.47141,10.861913011685164C6.47141,10.861913011685164,6.47141,10.861913011685164,6.47141,10.861913011685164Z" fill="#FFFFFF" fill-opacity="1"/></g></g></svg>