<?xml version="1.0" standalone="no"?><!DOCTYPE svg PUBLIC "-//W3C//DTD SVG 1.1//EN" "http://www.w3.org/Graphics/SVG/1.1/DTD/svg11.dtd"><svg t="1729323389734" class="icon" viewBox="0 0 1024 1024" version="1.1" xmlns="http://www.w3.org/2000/svg" p-id="1803" xmlns:xlink="http://www.w3.org/1999/xlink" width="200" height="200"><path d="M522.368 106.752c123.968 4.992 228.928 109.696 230.72 231.296 1.664 60.8-22.336 119.872-63.68 165.504-19.52 20.288-30.208 56.896-32.064 109.824h156.672c56.832 0 103.296 45.568 103.296 101.312L896 883.52a34.176 34.176 0 0 1-34.496 33.792H162.56A34.24 34.24 0 0 1 128 883.52l-21.312-168.832c0-55.68 46.464-101.312 103.296-101.312h156.672c-4.16-52.928-16-90.624-35.456-113.088a233.664 233.664 0 0 1-60.288-157.056c0-64.128 25.792-124.992 74.048-170.624 48.256-45.568 110.208-67.52 177.408-65.856zM513.024 192c-43.008 0.512-80.192 15.04-109.44 42.688a147.52 147.52 0 0 0-47.36 108.544c0 37.056 13.44 72.192 39.424 101.12 32.192 37.12 49.088 88.192 55.296 153.344l0.768 8.96 7.296 92.032H209.92c-9.28 0-16.768 6.592-17.856 14.08l-0.128 1.92L213.312 832h597.376L832 714.688c0-7.616-6.72-14.784-15.68-15.872l-2.304-0.128H568.96l3.2-88.32c2.368-69.12 17.408-122.88 51.392-161.28l2.688-2.88c26.24-28.864 40.96-64.512 41.6-100.48v-6.4c-1.088-74.048-66.624-141.184-143.808-147.008L519.552 192h-6.528z" p-id="1804" fill="#8a8a8a"></path></svg>