<svg xmlns="http://www.w3.org/2000/svg" xmlns:xlink="http://www.w3.org/1999/xlink" fill="none" version="1.1" width="148" height="31" viewBox="0 0 148 31"><g><path d="M5.746,26.04Q2.34,26.04,0.13,25.702L0.494,22.79Q3.666,23.18,6.084,23.18L6.422,23.18Q8.06,23.18,9.009,22.868Q9.958,22.556,10.374,21.958Q10.79,21.36,10.894,20.424Q10.946,19.956,10.946,19.774Q10.946,18.864,10.53,18.396Q10.114,17.928,9.295,17.733Q8.476,17.538,6.838,17.33Q4.966,17.122,3.874,16.68Q2.782,16.238,2.249,15.393Q1.716,14.548,1.716,13.118Q1.716,12.546,1.794,11.844Q2.132,8.906,3.77,7.658Q5.408,6.41,8.788,6.41L10.608,6.41Q12.584,6.41,14.976,6.462L14.638,9.322Q13.26,9.322,12.532,9.296L10.27,9.27L8.45,9.27Q6.552,9.27,5.681,9.933Q4.81,10.596,4.81,12.442Q4.81,13.248,5.122,13.651Q5.434,14.054,5.98,14.21Q6.526,14.366,7.748,14.548Q7.982,14.574,8.684,14.678Q10.608,14.964,11.752,15.432Q12.896,15.9,13.468,16.771Q14.04,17.642,14.04,19.124Q14.04,19.67,13.962,20.294Q13.702,22.452,12.831,23.7Q11.96,24.948,10.322,25.494Q8.684,26.04,6.084,26.04L5.746,26.04ZM17.822,6.41L31.186,6.41L30.9,8.776L19.148,23.128L29.418,23.128L29.08,25.936L14.858,25.936L15.144,23.57L26.896,9.218L17.484,9.218L17.822,6.41ZM32.264,9.27L32.602,6.41L48.02,6.41L47.682,9.27L41.416,9.27L39.414,25.936L36.346,25.936L38.348,9.27L32.264,9.27ZM56.508,23.18Q58.926,23.154,60.096,21.984Q61.266,20.814,61.63,18.188L63.06,6.41L66.128,6.41L64.724,18.032Q64.178,22.218,62.15,24.116Q60.122,26.014,56.17,26.04L55.156,26.04Q51.698,26.014,50.086,24.558Q48.474,23.102,48.474,19.982Q48.474,19.202,48.604,18.032L50.034,6.41L53.102,6.41L51.672,18.188Q51.568,19.228,51.568,19.592Q51.568,21.49,52.478,22.322Q53.388,23.154,55.494,23.18L56.508,23.18ZM68.272,14.756L79.4,14.756L79.036,17.616L67.908,17.616L68.272,14.756ZM83.754,6.41L96.338,6.41L96,9.218L86.484,9.218L85.808,14.652L94.128,14.652L93.79,17.434L85.47,17.434L84.768,23.102L94.518,23.102L94.18,25.936L81.362,25.936L83.754,6.41ZM112.86,4.772Q113.406,4.772,113.783,4.993Q114.16,5.214,114.524,5.76L120.374,14.808L117.384,15.172L112.522,7.216L107.036,7.216L100.562,15.276L97.442,14.886L104.878,5.708Q105.242,5.188,105.645,4.98Q106.048,4.772,106.542,4.772L112.86,4.772ZM104.462,11.272L114.42,11.272L114.16,13.612L104.202,13.612L104.462,11.272ZM113.952,25.416Q106.594,26.352,101.706,26.508Q100.848,26.534,100.354,26.118Q99.86,25.702,99.86,25.026Q99.86,24.324,100.562,23.648Q102.824,21.542,104.878,18.682L99.288,18.682L99.574,16.238L119.074,16.238L118.788,18.682L108.076,18.682Q106.958,20.19,105.814,21.542Q105.528,21.906,104.046,23.492L103.63,23.934Q107.894,23.726,112.834,23.076L111.326,19.904L114.004,19.904L117.462,26.716L114.576,26.716L113.952,25.416ZM132.242,18.968Q130.968,19.202,130.708,19.228L128.888,19.54Q127.328,19.8,125.404,20.008Q124.91,20.06,124.572,19.891Q124.234,19.722,124.078,19.384Q123.974,19.176,123.974,18.916Q123.974,18.422,124.364,17.954Q125.872,16.29,127.64,13.872Q126.964,14.002,126.366,14.028Q125.482,14.132,125.144,14.132Q124.676,14.132,124.364,13.976Q123.74,13.638,123.74,12.988Q123.74,12.494,124.104,12.052Q125.638,9.946,126.704,8.36Q128.238,6.02,128.992,4.59L131.982,4.59Q129.928,8.178,127.432,11.48Q128.836,11.324,129.564,11.194Q130.058,10.518,131.046,8.984L133.672,8.984Q132.71,10.674,130.838,13.378Q129.538,15.224,127.952,17.226L130.24,16.888Q131.774,16.654,132.554,16.42L132.242,18.968ZM139.236,4.59Q138.586,6.41,138.118,7.476L142.642,7.476Q144.124,7.476,144.748,8.1Q145.372,8.724,145.242,10.128L145.034,11.948L144.852,13.638Q144.748,14.522,144.631,15.523Q144.514,16.524,144.384,17.642L143.656,23.258Q143.63,23.492,143.5,24.376Q143.37,25.26,143.071,25.78Q142.772,26.3,142.226,26.56Q141.68,26.846,140.848,26.846Q140.224,26.846,139.574,26.716Q138.924,26.586,137.832,26.3Q136.766,26.014,135.44,25.546L135.7,22.998Q138.716,23.96,140.302,24.22Q140.406,24.246,140.562,24.246Q140.718,24.246,140.783,24.142Q140.848,24.038,140.9,23.726Q141.134,22.53,141.498,19.904L142.226,14.366L142.512,11.818L142.694,9.894L137.052,9.894Q135.882,12.312,135.05,13.95L132.294,13.95Q133.568,11.662,134.686,9.218Q135.7,7.034,136.584,4.59L139.236,4.59ZM137.806,13.794L139.21,19.644L136.792,19.644L135.44,13.794L137.806,13.794ZM132.32,23.596Q130.604,24.142,128.537,24.597Q126.47,25.052,123.376,25.676L123.662,23.154Q125.196,22.868,127.952,22.218Q130.422,21.62,132.554,20.996L132.32,23.596Z" fill="#556EFE" fill-opacity="1"/></g></svg>