<?xml version="1.0" standalone="no"?><!DOCTYPE svg PUBLIC "-//W3C//DTD SVG 1.1//EN" "http://www.w3.org/Graphics/SVG/1.1/DTD/svg11.dtd"><svg t="1729323228161" class="icon" viewBox="0 0 1024 1024" version="1.1" xmlns="http://www.w3.org/2000/svg" p-id="1375" xmlns:xlink="http://www.w3.org/1999/xlink" width="200" height="200"><path d="M342.799059 151.672471c26.021647 12.950588 48.489412 34.153412 72.643765 64.813176l6.204235 8.071529 27.105882 37.104942 9.878588 13.251764 3.312942 4.096c45.417412 56.018824 31.442824 136.071529-22.166589 171.429647l-3.915294 2.409412 0.301177 1.204706c1.566118 5.059765 4.577882 11.926588 9.33647 20.600471l3.855059 6.927058 4.577882 7.529412 5.180236 8.252236 2.891294 4.397176 3.433412 5.059765c29.936941 43.429647 67.704471 76.498824 107.339294 83.787294l3.373176 0.542117c-0.301176-0.180706-0.180706-0.361412 0.361412-0.843294l1.746824-1.325176c3.794824-2.831059 8.372706-7.348706 14.45647-14.396235l5.662118-6.625883c37.827765-45.176471 129.024-16.865882 194.56 36.924236l11.926588 9.33647 5.662118 4.517647 10.782117 8.854588c48.489412 40.478118 72.161882 71.378824 72.161883 106.37553v2.16847c-4.216471 73.366588-103.424 171.670588-214.196706 166.309647-106.917647-6.505412-220.882824-74.872471-330.812236-183.597176-85.172706-84.329412-162.032941-189.44-189.861647-254.433882-52.525176-124.265412-31.322353-221.424941 63.36753-297.321412 38.972235-30.900706 81.197176-35.117176 120.832-15.420235zM267.806118 225.340235c-67.885176 54.392471-81.197176 115.591529-41.381647 209.79953 23.612235 55.055059 94.930824 152.636235 173.778823 230.701176 98.364235 97.340235 198.234353 157.214118 283.105882 162.394353 37.948235 1.807059 72.282353-13.552941 100.352-41.441882 19.757176-19.576471 34.153412-44.574118 35.900236-53.609412l-0.180706-0.843294a38.791529 38.791529 0 0 0-6.505412-9.818353l-3.312941-3.855059-3.975529-4.336941-4.577883-4.758588-5.24047-5.12-5.842824-5.421177-6.445176-5.842823-7.04753-6.204236-7.649882-6.445176-8.192-6.746353-8.794353-6.987294-4.638118-3.614118a221.906824 221.906824 0 0 0-70.716235-38.851764l-3.794824-1.144471a83.968 83.968 0 0 0-18.672941-3.373177h-2.529882l-3.915294 4.577883c-26.503529 30.238118-47.224471 43.610353-78.305883 40.839529-71.017412-9.517176-126.253176-58.428235-168.598588-122.217412-51.2-77.281882-53.368471-126.072471-3.252706-153.6 18.793412-10.360471 25.178353-40.237176 8.252236-62.343529l-3.734589-4.577882-4.517647-5.903059-12.649411-17.106824-22.046118-30.298353-0.843294-1.084235c-40.417882-52.826353-65.536-65.355294-94.027294-42.767059z" p-id="1376" fill="#8a8a8a"></path></svg>