<svg xmlns="http://www.w3.org/2000/svg" xmlns:xlink="http://www.w3.org/1999/xlink" fill="none" version="1.1" width="80" height="80" viewBox="0 0 80 80"><g><g><path d="M39.8333,12C32.9298,12,27.3333,17.596429999999998,27.3333,24.5C27.3333,31.4036,32.9298,37,39.8333,37C46.7369,37,52.3333,31.4036,52.3333,24.5C52.3333,17.596429999999998,46.7369,12,39.8333,12C39.8333,12,39.8333,12,39.8333,12ZM26.5,43.6667C19.596429999999998,43.6667,14,49.263,14,56.1667C14,56.1667,14,60.1277,14,60.1277C14,62.6383,15.81961,64.779,18.29757,65.1837C32.5603,67.51230000000001,47.1063,67.51230000000001,61.369,65.1837C63.847,64.779,65.66669999999999,62.6383,65.66669999999999,60.1277C65.66669999999999,60.1277,65.66669999999999,56.1667,65.66669999999999,56.1667C65.66669999999999,49.263,60.0703,43.6667,53.1667,43.6667C53.1667,43.6667,52.0303,43.6667,52.0303,43.6667C51.4153,43.6667,50.8043,43.7639,50.2197,43.9548C50.2197,43.9548,47.3347,44.8969,47.3347,44.8969C42.4604,46.4883,37.206199999999995,46.4883,32.332,44.8969C32.332,44.8969,29.4469,43.9548,29.4469,43.9548C28.862299999999998,43.7639,28.2512,43.6667,27.636200000000002,43.6667C27.636200000000002,43.6667,26.5,43.6667,26.5,43.6667C26.5,43.6667,26.5,43.6667,26.5,43.6667Z" fill="#000000" fill-opacity="1"/></g></g></svg>