<svg xmlns="http://www.w3.org/2000/svg" xmlns:xlink="http://www.w3.org/1999/xlink" fill="none" version="1.1" width="18.0001220703125" height="18.81884765625" viewBox="0 0 18.0001220703125 18.81884765625"><g><path d="M18,2.90909C18,1.30182,16.8628,0,15.4588,0L2.54118,0C1.13718,0,0,1.30182,0,2.90909L0.00012207,15.9097C0.00012207,17.5169,1.13726,18.8188,2.54126,18.8188L15.459,18.8188C16.863,18.8188,18.0001,17.5169,18.0001,15.9097L18,2.90909ZM6.7085,10.4526C8.0238,10.7754,9,11.9775,9,13.4092L3,13.4092C3,11.9775,3.9762,10.7778,5.2915,10.4546C4.23462,10.1436,3.46155,9.1543,3.46155,7.98242C3.46155,6.56006,4.59692,5.40918,6,5.40918C7.40308,5.40918,8.53845,6.56006,8.53845,7.98242C8.53845,9.1543,7.76538,10.1436,6.7085,10.4526ZM10.7111,5.42432L14.5652,5.42432C14.9612,5.42432,15.2852,5.79278,15.2852,6.24854C15.2852,6.70429,14.9633,7.07275,14.5652,7.07275L10.7111,7.07275C10.3129,7.07275,9.99097,6.70429,9.99097,6.24854C9.99097,5.79278,10.3129,5.42432,10.7111,5.42432ZM10.7047,8.6792L13.5,8.6792C13.896,8.6792,14.22,9.04766,14.22,9.50342C14.22,9.95918,13.8981,10.3276,13.5,10.3276L10.7047,10.3276C10.3066,10.3276,9.98462,9.95918,9.98462,9.50342C9.98462,9.04766,10.3066,8.6792,10.7047,8.6792ZM10.7047,11.585L12.653,11.585C13.049,11.585,13.3729,11.9534,13.3729,12.4092C13.3729,12.8649,13.0511,13.2334,12.653,13.2334L10.7047,13.2334C10.3066,13.2334,9.98462,12.8649,9.98462,12.4092C9.98462,11.9534,10.3066,11.585,10.7047,11.585Z" fill-rule="evenodd" fill="#556EFE" fill-opacity="1" style="mix-blend-mode:passthrough"/></g></svg>