<svg xmlns="http://www.w3.org/2000/svg" xmlns:xlink="http://www.w3.org/1999/xlink" fill="none" version="1.1" width="15" height="14.870689392089844" viewBox="0 0 15 14.870689392089844"><g><path d="M7.5,8.36476C9.8291,8.36476,11.7188,6.4914,11.7188,4.18238C11.7188,1.87336,9.8291,0,7.5,0C5.1709,0,3.28125,1.87336,3.28125,4.18238C3.28125,6.4914,5.1709,8.36476,7.5,8.36476C7.5,8.36476,7.5,8.36476,7.5,8.36476ZM11.25,9.29418C11.25,9.29418,9.63574,9.29418,9.63574,9.29418C8.98535,9.59044,8.26172,9.75889,7.5,9.75889C6.73828,9.75889,6.01758,9.59044,5.36426,9.29418C5.36426,9.29418,3.75,9.29418,3.75,9.29418C1.67871,9.29418,0,10.9584,0,13.0119C0,13.0119,0,13.4766,0,13.4766C0,14.2462,0.629883,14.8707,1.40625,14.8707C1.40625,14.8707,13.5938,14.8707,13.5938,14.8707C14.3701,14.8707,15,14.2462,15,13.4766C15,13.4766,15,13.0119,15,13.0119C15,10.9584,13.3213,9.29418,11.25,9.29418C11.25,9.29418,11.25,9.29418,11.25,9.29418Z" fill="#17482E" fill-opacity="1"/></g></svg>