<svg xmlns="http://www.w3.org/2000/svg" xmlns:xlink="http://www.w3.org/1999/xlink" fill="none" version="1.1" width="24" height="24" viewBox="0 0 24 24"><defs><clipPath id="master_svg0_12_8635"><rect x="0" y="0" width="24" height="24" rx="0"/></clipPath></defs><g clip-path="url(#master_svg0_12_8635)"><g transform="matrix(0,-1,1,0,-10,28)"><path d="M9.292893,19.292893C9.683417,18.902369,10.31658,18.902369,10.70711,19.292893C10.70711,19.292893,16,24.58579,16,24.58579C16,24.58579,21.2929,19.292893,21.2929,19.292893C21.6834,18.902369,22.3166,18.902369,22.7071,19.292893C23.0976,19.683418,23.0976,20.316580000000002,22.7071,20.70711C22.7071,20.70711,16.70711,26.70711,16.70711,26.70711C16.316580000000002,27.097630000000002,15.68342,27.097630000000002,15.29289,26.70711C15.29289,26.70711,9.292893,20.70711,9.292893,20.70711C8.902369,20.316580000000002,8.902369,19.683418,9.292893,19.292893C9.292893,19.292893,9.292893,19.292893,9.292893,19.292893Z" fill="#0D0D0D" fill-opacity="1"/></g></g></svg>