<svg xmlns="http://www.w3.org/2000/svg" xmlns:xlink="http://www.w3.org/1999/xlink" fill="none" version="1.1" width="20" height="19.5" viewBox="0 0 20 19.5"><g><path d="M4.455,16L0,19.5L0,1C0,0.447715,0.447715,0,1,0L19,0C19.5523,0,20,0.447715,20,1L20,15C20,15.5523,19.5523,16,19,16L4.455,16ZM9,11L9,13L11,13L11,11L9,11ZM6.567,5.813L8.529,6.206C8.68387,5.43117,9.41325,4.90935,10.1966,5.01295C10.9799,5.11655,11.5486,5.81006,11.4967,6.59851C11.4447,7.387,10.7901,8,10,8L9,8L9,10L10,10C11.8434,9.99943,13.3704,8.56908,13.4914,6.72961C13.6123,4.89013,12.2857,3.27218,10.4582,3.03027C8.63071,2.78835,6.92884,4.00542,6.567,5.813Z" fill="#000000" fill-opacity="1" style="mix-blend-mode:passthrough"/></g></svg>