<svg xmlns="http://www.w3.org/2000/svg" xmlns:xlink="http://www.w3.org/1999/xlink" fill="none" version="1.1" width="19.056350708007812" height="21.017620086669922" viewBox="0 0 19.056350708007812 21.017620086669922"><g><path d="M17.6112,9.33381L18.8132,10.0548C19.1374,10.2489,19.1374,10.7187,18.8132,10.9128L9.52818,16.4838L0.243176,10.9128C-0.0810573,10.7187,-0.0810573,10.2489,0.243176,10.0548L1.44518,9.33381L9.52818,14.1838L17.6112,9.33381ZM17.6112,14.0338L18.8132,14.7548C19.1374,14.9489,19.1374,15.4187,18.8132,15.6128L10.0432,20.8748C9.72624,21.0652,9.33011,21.0652,9.01318,20.8748L0.243175,15.6128C-0.0810585,15.4187,-0.0810585,14.9489,0.243175,14.7548L1.44518,14.0338L9.52818,18.8838L17.6112,14.0338ZM10.0422,0.14281L18.8132,5.40481C19.1374,5.59892,19.1374,6.0687,18.8132,6.26281L9.52818,11.8338L0.243176,6.26281C-0.0810575,6.0687,-0.0810575,5.59892,0.243176,5.40481L9.01318,0.14281C9.33011,-0.0476032,9.72624,-0.0476032,10.0432,0.14281L10.0422,0.14281Z" fill="#000000" fill-opacity="1" style="mix-blend-mode:passthrough"/></g></svg>